# xmcd CD database file
#
# Track frame offsets:
#	150
#	16820
#	29427
#	42140
#	60007
#	72787
#	85090
#	95227
#	111485
#	128325
#	140475
#	160275
#	172237
#	182737
#	202350
#
# Disc length: 3025 seconds
#
# Revision: 1
# Processed by: cddbd v1.5.2PL0 Copyright (c) Steve Scherf et al.
# Submitted via: Feurio! 1.67 - http://www.feurio.com
#
DISCID=cf0bcf0f
DTITLE=Kevin Coyne - 1994 # Elvira Songs from Archives
DYEAR=1994
DGENRE=
TTITLE0=Stand up for England
TTITLE1=I'm a girl
TTITLE2=Debutante
TTITLE3=A leopard never changes her spots
TTITLE4=Golden Days
TTITLE5=Boys Boys
TTITLE6=The long arm of the law
TTITLE7=Think of sunshine
TTITLE8=Elvira
TTITLE9=Better than you
TTITLE10=Rambling Germany Blues
TTITLE11=Bimbo
TTITLE12=Up North
TTITLE13=Born in 1944
TTITLE14=Blood in the night
EXTD=
EXTT0=
EXTT1=
EXTT2=
EXTT3=
EXTT4=
EXTT5=
EXTT6=
EXTT7=
EXTT8=
EXTT9=
EXTT10=
EXTT11=
EXTT12=
EXTT13=
EXTT14=
PLAYORDER=
